<?xml version="1.0" standalone="no"?>
<!DOCTYPE svg PUBLIC "-//W3C//DTD SVG 20010904//EN"
 "http://www.w3.org/TR/2001/REC-SVG-20010904/DTD/svg10.dtd">
<svg version="1.0" xmlns="http://www.w3.org/2000/svg"
 width="128.000000pt" height="128.000000pt" viewBox="0 0 128.000000 128.000000"
 preserveAspectRatio="xMidYMid meet">
<metadata>
Created by potrace 1.14, written by Peter Selinger 2001-2017
</metadata>
<g transform="translate(0.000000,128.000000) scale(0.100000,-0.100000)"
fill="#000000" stroke="none">
<path d="M392 1139 c-13 -5 -28 -7 -33 -4 -11 8 -50 -56 -44 -72 2 -7 -1 -13
-8 -13 -12 0 -87 -117 -87 -135 0 -4 11 -23 25 -41 14 -18 25 -36 25 -41 0 -4
-22 -7 -48 -5 -43 3 -49 1 -62 -24 -12 -22 -13 -28 -2 -32 9 -3 7 -8 -9 -16
-13 -6 -27 -28 -34 -53 -7 -23 -20 -49 -28 -58 -9 -8 -14 -22 -11 -30 4 -8 1
-15 -5 -15 -13 0 -54 -77 -43 -83 4 -2 45 -17 92 -32 47 -15 97 -34 113 -42
l27 -14 -30 -59 c-16 -33 -30 -62 -30 -64 0 -3 15 -13 33 -22 17 -9 35 -22 39
-28 4 -6 8 -7 8 -3 0 4 10 2 23 -5 30 -17 55 -20 62 -8 4 6 11 8 16 5 5 -4 9
-1 9 5 0 7 7 9 16 6 8 -3 12 -2 9 4 -3 6 -2 10 4 10 6 0 16 -18 22 -40 8 -28
21 -43 40 -52 15 -7 25 -17 22 -23 -4 -5 -3 -7 1 -3 10 9 88 -19 98 -35 6 -9
8 -8 8 3 0 13 2 13 9 1 5 -8 28 -15 50 -17 23 -1 38 2 35 7 -3 5 0 9 6 9 6 0
9 4 5 9 -6 11 26 80 38 81 5 0 5 -6 1 -12 -4 -7 -3 -9 1 -5 5 4 11 20 13 34 2
15 11 33 20 41 11 9 12 11 2 6 -13 -7 -13 -5 -1 9 16 20 31 14 25 -11 -5 -23
26 -44 105 -70 60 -21 65 -21 77 -4 14 19 40 102 36 116 -2 4 3 15 10 24 11
13 11 14 -1 7 -11 -6 -10 -2 2 16 9 13 17 30 17 39 0 24 67 149 76 142 4 -4 4
-2 1 4 -8 13 14 74 26 74 4 0 6 4 2 9 -3 5 4 33 15 61 27 68 26 75 -15 99 -42
25 -46 43 -7 32 45 -12 56 -8 77 32 17 33 18 39 5 47 -8 5 -27 10 -41 10 -14
0 -40 11 -59 25 -19 14 -39 25 -46 25 -6 0 -47 12 -90 27 -149 50 -159 48
-184 -24 -8 -21 -19 -32 -37 -36 -28 -5 -73 10 -73 25 0 5 -9 12 -21 16 -21 8
-20 9 7 42 19 22 24 35 16 38 -6 2 -12 10 -12 18 0 8 -8 14 -18 14 -10 0 -72
16 -139 35 -67 19 -123 35 -125 34 -2 0 -14 -4 -26 -10z"/>
<path d="M760 180 c-9 -6 -10 -10 -3 -10 6 0 15 5 18 10 8 12 4 12 -15 0z"/>
</g>
</svg>
